<svg width="128" height="128" viewBox="0 0 128 128" fill="none" xmlns="http://www.w3.org/2000/svg">
<rect width="128" height="128" rx="64" fill="url(#paint0_linear_1_2)"/>
<g filter="url(#filter0_d_1_2)">
<path d="M56.527 78.4773V77.5909C56.5497 73.4773 56.9361 70.2045 57.6861 67.7727C58.4588 65.3409 59.5497 63.3864 60.9588 61.9091C62.3679 60.4091 64.0838 59.0341 66.1065 57.7841C67.4929 56.9205 68.7315 55.9773 69.8224 54.9545C70.9361 53.9091 71.8111 52.75 72.4474 51.4773C73.0838 50.1818 73.402 48.7386 73.402 47.1477C73.402 45.3523 72.9815 43.7955 72.1406 42.4773C71.2997 41.1591 70.1634 40.1364 68.7315 39.4091C67.3224 38.6818 65.7429 38.3182 63.9929 38.3182C62.3793 38.3182 60.8452 38.6705 59.3906 39.375C57.9588 40.0568 56.7656 41.1023 55.8111 42.5114C54.8793 43.8977 54.3565 45.6591 54.2429 47.7955H42.1065C42.2202 43.4773 43.2656 39.8636 45.2429 36.9545C47.2429 34.0455 49.8793 31.8636 53.152 30.4091C56.4474 28.9545 60.0838 28.2273 64.0611 28.2273C68.402 28.2273 72.2202 28.9886 75.5156 30.5114C78.8338 32.0341 81.4134 34.2045 83.2543 37.0227C85.1179 39.8182 86.0497 43.1364 86.0497 46.9773C86.0497 49.5682 85.6293 51.8864 84.7884 53.9318C83.9702 55.9773 82.7997 57.7955 81.277 59.3864C79.7543 60.9773 77.9474 62.3977 75.8565 63.6477C74.0156 64.7841 72.5043 65.9659 71.3224 67.1932C70.1634 68.4205 69.2997 69.8636 68.7315 71.5227C68.1861 73.1591 67.902 75.1818 67.8793 77.5909V78.4773H56.527ZM62.4588 99.75C60.4134 99.75 58.652 99.0227 57.1747 97.5682C55.6974 96.1136 54.9588 94.3409 54.9588 92.25C54.9588 90.2045 55.6974 88.4545 57.1747 87C58.652 85.5455 60.4134 84.8182 62.4588 84.8182C64.4815 84.8182 66.2315 85.5455 67.7088 87C69.2088 88.4545 69.9588 90.2045 69.9588 92.25C69.9588 93.6364 69.6065 94.8977 68.902 96.0341C68.2202 97.1705 67.3111 98.0795 66.1747 98.7614C65.0611 99.4205 63.8224 99.75 62.4588 99.75Z" fill="white"/>
</g>
<defs>
<filter id="filter0_d_1_2" x="38.1065" y="28.2273" width="51.9432" height="79.5227" filterUnits="userSpaceOnUse" color-interpolation-filters="sRGB">
<feFlood flood-opacity="0" result="BackgroundImageFix"/>
<feColorMatrix in="SourceAlpha" type="matrix" values="0 0 0 0 0 0 0 0 0 0 0 0 0 0 0 0 0 0 127 0" result="hardAlpha"/>
<feOffset dy="4"/>
<feGaussianBlur stdDeviation="2"/>
<feComposite in2="hardAlpha" operator="out"/>
<feColorMatrix type="matrix" values="0 0 0 0 0 0 0 0 0 0 0 0 0 0 0 0 0 0 0.25 0"/>
<feBlend mode="normal" in2="BackgroundImageFix" result="effect1_dropShadow_1_2"/>
<feBlend mode="normal" in="SourceGraphic" in2="effect1_dropShadow_1_2" result="shape"/>
</filter>
<linearGradient id="paint0_linear_1_2" x1="64" y1="0" x2="64" y2="128" gradientUnits="userSpaceOnUse">
<stop stop-color="#DEE1E3"/>
<stop offset="1" stop-color="#CED3D9"/>
</linearGradient>
</defs>
</svg>
